<svg xmlns="http://www.w3.org/2000/svg">

    <symbol id="menu" fill="#222" height="24" viewBox="0 0 24 24" width="24" style="all:inherit;">
        <path d="M0 0h24v24H0z" fill="none"/>
        <path d="M3 18h18v-2H3v2zm0-5h18v-2H3v2zm0-7v2h18V6H3z"/>
    </symbol>

    <symbol id="add" fill="#222" height="24" viewBox="0 0 24 24" width="24" style="all:inherit;">
        <path d="M19 13h-6v6h-2v-6H5v-2h6V5h2v6h6v2z"/>
        <path d="M0 0h24v24H0z" fill="none"/>
    </symbol>

    <symbol id="github" fill="#222" height="24" viewBox="0 0 24 24" style="all:inherit;">
        <title>gitHub</title>
        <path d="M12 .297c-6.63 0-12 5.373-12 12 0 5.303 3.438 9.8 8.205 11.385.6.113.82-.258.82-.577 0-.285-.01-1.04-.015-2.04-3.338.724-4.042-1.61-4.042-1.61C4.422 18.07 3.633 17.7 3.633 17.7c-1.087-.744.084-.729.084-.729 1.205.084 1.838 1.236 1.838 1.236 1.07 1.835 2.809 1.305 3.495.998.108-.776.417-1.305.76-1.605-2.665-.3-5.466-1.332-5.466-5.93 0-1.31.465-2.38 1.235-3.22-.135-.303-.54-1.523.105-3.176 0 0 1.005-.322 3.3 1.23.96-.267 1.98-.399 3-.405 1.02.006 2.04.138 3 .405 2.28-1.552 3.285-1.23 3.285-1.23.645 1.653.24 2.873.12 3.176.765.84 1.23 1.91 1.23 3.22 0 4.61-2.805 5.625-5.475 5.92.42.36.81 1.096.81 2.22 0 1.606-.015 2.896-.015 3.286 0 .315.21.69.825.57C20.565 22.092 24 17.592 24 12.297c0-6.627-5.373-12-12-12"/>
    </symbol>

    <symbol id="home" fill="#222" height="24" viewBox="0 0 24 24" width="24" style="all:inherit;">
        <path d="M10 20v-6h4v6h5v-8h3L12 3 2 12h3v8z"/>
        <path d="M0 0h24v24H0z" fill="none"/>
    </symbol>

    <symbol id="edit" fill="#222" height="24" viewBox="0 0 24 24" width="24" style="all:inherit;">
        <path d="M3 17.25V21h3.75L17.81 9.94l-3.75-3.75L3 17.25zM20.71 7.04c.39-.39.39-1.02 0-1.41l-2.34-2.34c-.39-.39-1.02-.39-1.41 0l-1.83 1.83 3.75 3.75 1.83-1.83z"/>
        <path d="M0 0h24v24H0z" fill="none"/>
    </symbol>

    <symbol id="rowing" fill="#222" height="24" viewBox="0 0 24 24" width="24" style="all:inherit;" xmlns:xlink="http://www.w3.org/1999/xlink">
        <defs>
            <path d="M24 24H0V0h24v24z" id="a"/>
        </defs>
        <clipPath id="b">
            <use overflow="visible" xlink:href="#a"/>
        </clipPath>
        <path clip-path="url(#b)" d="M8.5 14.5L4 19l1.5 1.5L9 17h2l-2.5-2.5zM15 1c-1.1 0-2 .9-2 2s.9 2 2 2 2-.9 2-2-.9-2-2-2zm6 20.01L18 24l-2.99-3.01V19.5l-7.1-7.09c-.31.05-.61.07-.91.07v-2.16c1.66.03 3.61-.87 4.67-2.04l1.4-1.55c.19-.21.43-.38.69-.5.29-.14.62-.23.96-.23h.03C15.99 6.01 17 7.02 17 8.26v5.75c0 .84-.35 1.61-.92 2.16l-3.58-3.58v-2.27c-.63.52-1.43 1.02-2.29 1.39L16.5 18H18l3 3.01z"/>
    </symbol>
</svg>

